<svg width="437" height="153" viewBox="0 0 437 153" fill="none" xmlns="http://www.w3.org/2000/svg">
<path d="M51.463 0H75.335V110.496C63.089 112.821 54.098 113.751 44.333 113.751C15.191 113.751 0 100.577 0 75.308C0 50.972 16.122 35.161 41.078 35.161C44.953 35.161 47.898 35.472 51.464 36.4L51.463 0ZM51.463 55.62C48.673 54.691 46.348 54.381 43.403 54.381C31.312 54.381 24.336 61.822 24.336 74.841C24.336 87.554 31.002 94.529 43.248 94.529C45.882 94.529 48.053 94.374 51.463 93.911V55.62Z" fill="#F7F4F3"/>
<path d="M113.311 36.864V92.205C113.311 111.27 111.916 120.415 107.731 128.322C103.855 135.918 98.739 140.721 88.199 145.992L66.032 135.451C76.573 130.491 81.688 126.154 84.943 119.485C88.354 112.666 89.44 104.758 89.44 83.987V36.864H113.311ZM89.44 0.126999H113.311V24.62H89.44V0.126999Z" fill="#EB0296"/>
<path d="M127.73 42.29C138.272 37.329 148.347 35.16 159.353 35.16C171.599 35.16 179.659 38.415 183.225 44.771C185.239 48.335 185.859 52.985 185.859 62.908V111.425C175.162 112.977 161.677 114.061 151.757 114.061C131.761 114.061 122.769 107.084 122.769 91.585C122.769 74.841 134.705 67.092 164.003 64.61V59.339C164.003 55 161.833 53.451 155.787 53.451C146.952 53.451 137.031 55.93 127.729 60.736V42.29H127.73ZM165.088 80.268C149.276 81.82 144.161 84.299 144.161 90.499C144.161 95.149 147.107 97.32 153.617 97.32C157.183 97.32 160.437 97.009 165.088 96.236V80.268Z" fill="#EB0296"/>
<path d="M197.486 40.586C211.591 36.864 223.217 35.16 234.998 35.16C247.244 35.16 256.08 37.948 261.352 43.376C266.312 48.489 267.861 54.069 267.861 66.008V112.821H243.99V66.937C243.99 57.792 240.89 54.38 232.365 54.38C229.11 54.38 226.165 54.691 221.358 56.086V112.82H197.487V40.586H197.486Z" fill="#EB0296"/>
<path d="M277.141 125.842C285.513 130.181 293.883 132.196 302.718 132.196C318.373 132.196 325.039 125.842 325.039 110.65C325.039 110.496 325.039 110.34 325.039 110.183C320.389 112.509 315.738 113.44 309.539 113.44C288.612 113.44 275.279 99.643 275.279 77.788C275.279 50.66 294.967 35.315 329.843 35.315C340.075 35.315 349.531 36.399 361.002 38.722L352.828 55.944C346.472 54.703 352.319 55.777 347.516 55.312V57.792L347.825 67.866L347.979 80.888C348.134 84.141 348.134 87.398 348.29 90.652C348.29 93.597 348.29 94.994 348.29 97.164C348.29 117.626 346.585 127.237 341.47 135.141C334.029 146.768 321.163 152.503 302.872 152.503C293.571 152.503 285.512 151.107 277.14 147.852V125.842H277.141ZM324.575 54.536C324.265 54.536 323.956 54.536 323.801 54.536H322.095C317.446 54.381 312.021 55.62 308.299 57.945C302.565 61.202 299.618 67.091 299.618 75.463C299.618 87.4 305.51 94.219 316.05 94.219C319.305 94.219 321.941 93.599 325.04 92.669V90.964V84.454C325.04 81.664 324.886 78.562 324.886 75.308L324.732 64.302L324.576 56.397V54.536H324.575Z" fill="#EB0296"/>
<path d="M398.061 34.851C421.932 34.851 436.504 49.888 436.504 74.222C436.504 99.179 421.314 114.835 397.131 114.835C373.258 114.835 358.532 99.799 358.532 75.619C358.533 50.505 373.725 34.851 398.061 34.851ZM397.594 95.614C406.741 95.614 412.167 88.018 412.167 74.841C412.167 61.822 406.896 54.07 397.752 54.07C388.295 54.07 382.868 61.668 382.868 74.841C382.869 88.019 388.295 95.614 397.594 95.614Z" fill="#EB0296"/>
</svg>
