<svg width="408" height="408" viewBox="0 0 408 408" fill="none" xmlns="http://www.w3.org/2000/svg">
<g id="me 1" clip-path="url(#clip0_59_83)">
<g id="svga-group-wrapper">
<g id="svga-group-humanwrap-move">
<g id="svga-group-humanwrap">
<g id="svga-group-humanbody-back">
<path id="SvgjsPath31602" d="M368.832 364.956C364.14 358.02 289.476 328.644 289.476 328.644L262.14 318.036L250.716 177.684H156.672L145.452 318.24L118.116 328.848C118.116 328.848 43.656 358.224 38.76 365.16C34.068 372.096 32.028 395.556 32.028 395.556V434.52H375.768V395.352C375.564 395.556 373.728 371.892 368.832 364.956V364.956Z" fill="#A56B3F"/>
</g>
<g id="svga-group-chinshadow-single">
<path id="SvgjsPath31598" d="M174.828 308.815C180.846 313.915 204.204 313.589 210.854 309.509C217.382 305.51 228.337 294.168 257.611 261.324L250.798 177.684H156.713L148.451 281.622C161.242 295.678 170.952 305.551 174.828 308.815V308.815Z" fill="#864818"/>
</g>
<g id="svga-group-humanbody-front">
<path id="SvgjsPath31603" d="M376.38 434.52C376.176 421.464 376.176 408.408 376.176 395.352L375.564 395.148C375.564 395.148 375.768 394.944 375.972 395.148C376.176 395.148 376.176 395.352 376.176 395.352V394.536L375.972 393.516L375.768 391.68L375.36 387.804C374.952 385.152 374.544 382.704 374.136 380.052C373.728 377.4 373.116 374.952 372.3 372.3C371.484 369.852 370.668 367.2 369.24 364.956C367.608 363.12 365.364 361.896 363.324 360.672C361.284 359.448 359.04 358.428 356.796 357.204C352.512 354.96 348.024 352.92 343.536 350.88C334.56 346.8 325.788 342.924 316.812 339.252C307.836 335.376 298.86 331.704 289.884 328.032L263.364 317.424L260.916 282.948C260.1 271.32 259.08 259.488 258.264 247.86L255.612 212.772L252.552 177.48L252.348 175.848H250.716C235.008 175.848 219.3 176.052 203.592 176.052L156.468 176.46H155.448V177.48L153 212.568L150.348 247.656C148.716 270.912 146.676 294.168 144.636 317.424C133.212 321.708 121.788 325.992 110.568 330.48C99.144 334.968 87.72 339.66 76.296 344.556C70.584 347.004 64.872 349.452 59.364 351.9C53.652 354.552 48.144 357 42.636 360.264C41.208 361.08 39.984 361.896 38.556 363.12C38.148 363.324 37.74 363.936 37.536 364.344L36.924 365.568C36.516 366.384 36.108 366.996 35.904 367.812C34.68 370.872 33.864 373.932 33.252 376.992C32.028 383.112 31.008 389.232 30.396 395.556L30.192 434.52V436.356H32.028L117.912 436.56H204C232.56 436.56 261.324 436.356 289.884 436.152L375.768 435.132H376.38V434.52ZM204 432.48L118.116 432.276L34.068 432.48L33.864 395.556C34.476 389.436 35.088 383.52 36.312 377.4C36.924 374.544 37.536 371.484 38.556 368.832C38.76 368.22 39.168 367.404 39.372 366.996L39.78 366.18L40.392 365.568C41.412 364.752 42.636 363.936 44.064 363.12C49.164 360.06 54.876 357.408 60.384 354.756C65.892 352.104 71.604 349.656 77.112 347.208C88.332 342.312 99.756 337.416 111.18 332.724C122.604 328.032 134.028 323.544 145.656 319.056L146.064 318.852V318.444C147.9 294.984 149.532 271.524 151.572 248.268L154.428 213.18L157.488 179.112L203.592 179.52C218.688 179.724 233.784 179.724 249.084 179.724L251.736 213.18L254.796 248.268C255.816 259.896 256.836 271.728 257.856 283.356L261.12 318.444V319.056L261.732 319.26L289.068 329.46C298.044 332.928 307.224 336.396 316.2 340.068C325.176 343.74 334.152 347.616 343.128 351.492C347.616 353.532 351.9 355.572 356.388 357.612C358.632 358.632 360.672 359.856 362.916 360.876C364.956 362.1 367.2 363.324 368.832 364.956C370.26 367.2 371.076 369.648 371.688 372.096C372.3 374.544 372.912 377.196 373.32 379.644C373.728 382.296 374.136 384.744 374.544 387.396L374.952 391.272L375.156 393.108L375.36 394.128V394.944C375.36 407.796 375.36 420.648 375.156 433.5L289.884 432.48C261.324 432.684 232.56 432.48 204 432.48V432.48Z" fill="#77390A"/>
<path id="SvgjsPath31604" d="M255.204 278.256C255.204 278.256 251.532 325.176 236.64 345.372C236.64 345.372 252.756 294.372 255.204 278.256ZM184.824 310.896C184.824 310.896 195.024 327.012 208.284 331.5C208.284 331.5 188.904 335.988 184.824 310.896ZM149.736 273.36C163.404 325.584 163.404 325.584 167.076 335.988C167.076 335.988 167.892 310.284 149.736 273.36Z" fill="#864818"/>
</g>
<g id="svga-group-clothes-single">
<path id="SvgjsPath31486" d="M138.312 267.444C136.068 264.18 127.704 279.684 129.336 287.028C130.968 294.576 127.704 293.352 128.112 300.9C128.52 308.448 123.012 308.856 122.604 311.916C122.196 314.976 123.012 321.708 123.012 321.708C123.012 321.708 98.94 325.992 89.556 330.684C80.172 335.376 53.856 344.76 49.368 346.8C44.88 348.84 37.944 351.9 37.536 353.94C37.128 355.98 34.068 351.084 30.396 359.856C26.724 368.628 21.42 383.112 22.644 389.028C23.868 394.944 21.828 409.02 22.236 413.304C22.644 417.588 22.236 436.56 22.236 436.56H384.336C384.336 436.56 381.888 414.936 383.112 407.592C384.336 400.248 383.112 380.868 382.296 376.584C381.48 372.3 379.236 361.692 375.972 360.06C375.972 360.06 375.972 352.92 365.772 347.82C355.572 342.72 335.172 337.62 325.584 333.948C315.996 330.276 293.76 320.892 290.904 319.872C288.048 318.852 284.58 317.424 284.58 317.424L280.704 317.016C280.704 317.016 284.172 302.94 280.704 299.268C277.236 295.596 277.236 288.66 275.604 287.028C273.972 285.396 281.52 274.38 270.504 268.872C270.504 268.872 273.36 273.972 249.696 282.744C226.032 291.516 186.048 289.476 165.648 284.784C145.248 280.092 139.944 269.892 138.312 267.444V267.444Z" fill="#311847"/>
<path id="SvgjsPath31487" d="M112.2 331.5C107.304 332.928 102.204 334.356 97.308 335.784C92.412 337.416 87.516 338.64 82.62 341.088L81.6 341.7L80.988 342.312L79.56 343.536L76.5 345.78L70.38 350.472C72.624 349.248 74.868 348.024 77.112 346.596C78.132 345.984 79.356 345.168 80.376 344.556L82.008 343.332L82.824 342.72L83.436 342.312C85.68 341.292 88.128 340.68 90.576 339.864L97.92 337.62C102.816 336.192 107.712 334.56 112.608 332.928C115.056 332.112 117.504 331.092 119.952 330.072C122.4 329.052 124.848 328.032 126.684 326.196C124.44 327.624 121.992 328.236 119.544 329.052C117.096 330.072 114.648 330.684 112.2 331.5V331.5ZM386.376 436.356C385.764 430.032 385.152 423.504 384.948 416.976C384.948 413.712 384.744 410.448 385.152 407.592C385.56 404.124 385.56 400.86 385.764 397.596C385.764 391.068 385.56 384.54 384.744 377.808C384.336 374.34 383.52 371.28 382.704 367.812C382.296 366.18 381.684 364.548 381.072 362.916L379.848 360.468C379.44 359.856 379.032 359.244 378.42 358.632C378.42 358.224 378.216 358.02 378.216 357.612L377.604 355.776C377.196 354.552 376.584 353.532 375.768 352.512C374.34 350.472 372.504 348.84 370.668 347.616C366.792 344.964 362.508 343.536 358.428 341.904C350.268 339.048 341.904 336.6 333.744 333.948C329.664 332.724 325.788 331.296 321.708 329.664L309.672 324.768L297.84 320.28L291.924 317.832C289.884 317.016 287.844 316.2 285.804 315.588H285.396L283.764 315.384C284.58 311.712 284.988 308.04 284.784 304.164C284.58 302.94 284.58 301.716 283.968 300.492C283.764 299.88 283.356 299.064 282.744 298.452L282.336 297.84C282.132 297.636 282.132 297.432 281.928 297.432C280.908 296.004 280.296 294.168 279.684 292.128C279.48 291.108 279.072 290.088 278.868 288.864C278.664 288.252 278.46 287.64 278.052 287.028C278.052 286.824 277.848 286.824 277.848 286.62C277.848 285.804 278.256 284.784 278.46 283.56C278.664 282.54 278.868 281.316 279.072 280.092C279.276 277.644 278.868 274.992 277.644 272.748C276.216 270.504 274.176 268.872 272.136 267.852C272.136 267.852 269.28 266.628 265.812 266.016C262.14 265.404 260.1 265.2 260.1 265.2C260.1 265.2 260.712 274.38 260.916 277.032C259.692 277.644 258.672 278.256 257.448 278.664C251.94 281.112 246.432 283.152 240.72 284.58C229.092 287.232 217.056 288.252 205.02 288.252C192.984 288.252 180.948 287.436 169.116 285.192C163.2 283.968 157.488 282.336 152.184 279.48L149.124 277.644C148.92 277.236 148.92 276.828 148.92 276.42C148.92 275.4 149.736 265.812 149.736 265.404C149.736 264.996 138.72 266.628 137.904 267.036C137.7 267.036 137.496 267.24 137.292 267.24C136.68 267.648 136.272 268.056 135.864 268.464C135.048 269.484 134.436 270.504 133.62 271.728C132.396 273.972 131.376 276.216 130.56 278.664C129.744 281.112 129.336 283.56 129.54 286.212C129.948 288.66 130.56 291.108 129.744 293.556C129.336 294.78 128.928 296.004 128.724 297.228C128.52 298.452 128.52 299.88 128.52 301.104C128.724 303.552 128.112 306 126.276 307.836C125.46 308.652 124.44 309.468 123.624 310.488C123.216 311.1 123.012 311.916 123.012 312.528V314.364C123.012 316.812 123.216 319.056 123.42 321.504C116.076 322.728 108.936 324.36 101.796 326.196C98.124 327.216 94.452 328.236 90.984 329.868C87.516 331.5 84.252 332.928 80.784 334.152C73.848 336.804 66.708 339.456 59.772 342.108C56.304 343.332 52.632 344.556 49.164 346.188C47.532 347.004 45.696 347.616 44.064 348.636C42.432 349.452 40.596 350.268 38.964 351.696C38.556 352.104 38.148 352.512 37.74 353.124H36.924C36.312 353.124 35.496 353.328 34.884 353.532C33.66 354.144 32.844 355.164 32.232 355.98C31.62 356.796 31.212 357.816 30.804 358.632C29.376 362.1 27.948 365.568 26.52 369.24C25.296 372.912 24.072 376.38 23.052 380.256C22.644 382.092 22.236 384.132 22.032 386.172C22.032 387.192 21.828 388.212 22.032 389.436L22.236 390.66V391.884C22.44 395.352 22.236 399.228 22.032 402.9C21.828 406.572 21.42 410.448 21.624 414.324C21.828 421.668 21.624 429.216 21.624 436.764V438.6H23.46L114.036 437.784C144.228 437.58 174.42 437.376 204.612 437.58C234.804 437.58 264.996 437.988 295.188 438.192L385.764 438.804H387.804L386.376 436.356V436.356ZM279.48 300.492L279.684 300.696C279.888 300.9 279.888 301.104 280.092 301.512C280.296 302.328 280.5 303.144 280.5 304.164C280.704 308.04 279.888 312.528 278.868 316.404L278.256 318.648H278.664C276.828 320.28 275.196 321.708 273.36 323.136C273.768 322.116 273.972 320.892 274.176 319.872C274.38 318.24 274.38 316.608 274.176 314.976C273.972 313.344 273.564 311.712 272.952 310.08C272.34 308.652 271.728 307.224 270.912 305.796V305.388C273.972 303.756 276.624 302.124 279.48 300.492V300.492ZM258.672 319.872L258.468 319.464C257.652 317.628 256.632 315.792 255.612 313.956C260.1 311.712 264.588 309.264 269.076 306.612L269.28 306.816C270.096 308.04 270.912 309.468 271.524 310.896C272.136 312.324 272.748 313.752 272.952 315.384C273.36 317.016 273.564 318.444 273.564 320.076C273.564 321.3 273.564 322.524 273.36 323.748C270.504 326.196 267.648 328.44 264.588 330.48C262.548 331.908 260.304 333.54 258.06 334.764C258.06 334.56 258.264 334.152 258.264 333.948C258.468 331.704 258.468 329.256 258.468 327.012C258.672 324.564 258.876 322.116 258.672 319.872V319.872ZM249.9 321.096C249.492 319.872 248.88 318.648 248.064 317.832L253.572 315.384C253.776 315.18 253.98 315.18 254.184 315.18C255.204 317.016 256.02 318.648 257.04 320.484C257.244 322.728 257.448 324.972 257.448 327.216C257.652 329.46 257.652 331.908 257.856 334.152V335.376C257.244 335.58 256.632 335.988 256.224 336.192C254.592 336.804 253.368 337.416 251.532 337.824C250.92 338.028 250.308 338.028 249.696 338.232C250.104 334.764 250.308 331.296 250.512 328.032C250.104 325.584 250.308 323.34 249.9 321.096V321.096ZM230.928 330.888C230.112 329.256 229.704 327.42 229.296 325.584C229.092 324.768 229.092 324.156 228.888 323.34L230.724 323.136C232.152 322.932 233.376 322.728 234.6 322.32L236.64 321.912L238.68 321.3C241.128 320.484 243.78 319.464 246.228 318.444C247.044 319.26 247.86 320.28 248.064 321.504C248.472 323.34 248.472 325.38 248.676 327.624L249.084 338.028C248.064 338.232 247.248 338.436 246.228 338.436C241.332 339.252 236.436 339.864 231.54 340.476C231.54 340.272 231.744 339.864 231.744 339.66C231.948 338.64 231.948 337.824 231.948 336.804C231.948 334.764 231.744 332.928 230.928 330.888V330.888ZM190.332 338.844C190.74 340.068 190.74 341.292 191.352 342.516C191.556 342.924 191.76 343.332 191.964 343.536C189.108 343.536 186.456 343.332 183.804 343.128C182.988 343.128 182.172 342.924 181.356 342.72L180.132 342.516L178.908 342.108L174.012 340.272H173.808C173.604 338.844 173.604 337.62 173.4 336.192C173.4 334.968 173.196 333.948 173.4 332.724C173.604 331.704 173.808 330.48 174.216 329.46C174.624 328.44 175.032 327.216 175.032 325.992H175.44C176.664 326.196 177.888 326.604 179.316 326.808C179.928 327.012 180.54 327.216 181.152 327.216C181.764 327.42 182.58 327.624 183.396 327.624C185.232 327.828 186.864 327.828 188.496 327.828C188.7 329.052 188.904 330.072 188.904 331.296V331.5C189.312 333.948 189.72 336.396 190.332 338.844V338.844ZM191.964 342.312C191.556 341.088 191.556 339.864 191.352 338.64C191.148 336.192 190.74 333.744 190.536 331.092C190.536 329.868 190.332 328.848 190.332 327.624H191.556C202.164 327.216 212.568 325.788 223.176 324.156L227.46 323.544C227.664 324.36 227.664 325.176 227.868 325.788C228.276 327.624 228.888 329.664 229.908 331.296C230.724 332.724 231.132 334.764 231.336 336.6C231.54 337.824 231.54 339.048 231.54 340.476C229.5 340.68 227.664 341.088 225.624 341.292C218.688 342.108 211.752 342.924 204.816 343.128C200.736 343.332 196.86 343.536 192.78 343.536C192.168 343.332 191.964 342.924 191.964 342.312V342.312ZM277.44 286.008C277.44 286.008 277.236 286.008 277.44 286.008C277.236 285.804 277.236 286.008 277.44 286.008ZM271.728 272.136C271.728 271.932 271.932 271.932 271.932 271.932C272.952 272.544 273.768 273.36 274.176 274.38C274.992 276.012 275.4 277.644 275.196 279.684C274.992 280.704 274.992 281.724 274.788 282.744C274.584 283.764 274.176 284.784 273.972 286.212C273.972 286.62 273.972 287.028 274.176 287.844C274.176 288.048 274.38 288.252 274.38 288.456L274.788 288.864C274.992 289.068 274.992 289.476 275.196 289.884C275.4 290.904 275.604 291.924 276.012 292.944C276.624 295.188 277.236 297.432 278.664 299.676C278.868 299.88 279.072 300.288 279.276 300.492C276.624 301.716 273.972 302.94 271.116 304.164C270.912 302.328 270.708 300.288 270.096 298.452C269.688 297.024 268.872 296.004 268.668 294.78C268.26 293.76 268.464 292.74 268.872 291.312C269.076 290.088 269.28 288.66 269.28 287.232C269.28 285.804 268.872 284.376 268.26 283.152C267.648 281.928 267.036 280.704 266.016 279.684C265.404 279.072 264.792 278.46 264.18 278.052C264.792 277.644 265.608 277.236 266.22 276.828C267.444 276.012 268.872 275.196 270.096 273.972C270.708 273.564 271.32 272.952 271.728 272.136ZM258.06 281.112C260.1 280.296 262.14 279.276 263.976 278.256C265.608 279.684 266.628 281.52 267.24 283.356C267.648 284.58 267.852 285.804 267.648 287.028C267.648 288.252 267.24 289.476 267.036 290.7C266.832 291.312 266.832 291.924 266.628 292.74C266.424 293.556 266.628 294.372 266.832 294.984C267.24 296.412 267.852 297.636 268.26 298.656C268.872 300.492 269.28 302.532 269.28 304.572C264.792 306.612 260.1 308.856 255.408 310.692V307.836C255.204 306 254.796 304.368 253.98 302.532L252.756 300.084L252.144 298.86C251.94 298.452 251.736 298.248 251.532 297.84C251.124 297.228 251.124 296.412 251.124 296.004C251.328 295.392 251.736 294.984 252.348 294.78L252.96 294.576V294.168C252.756 292.128 252.552 290.088 252.144 288.252C251.736 286.62 251.328 285.192 250.512 283.764C253.164 283.152 255.612 282.132 258.06 281.112V281.112ZM250.308 283.968C250.716 285.396 251.124 287.028 251.124 288.456C251.328 290.292 251.328 292.128 251.328 293.76C250.512 294.168 249.696 294.78 249.492 295.596C249.084 296.82 249.288 297.84 249.696 298.656L250.308 299.88C250.512 300.288 250.716 300.492 250.92 300.9C251.328 301.716 251.532 302.328 251.94 303.144C252.552 304.776 252.96 306.408 253.164 307.836V311.304C252.756 311.508 252.348 311.712 251.94 311.712L245.82 314.16C245.82 311.916 245.616 309.876 245.208 307.632C245.004 306.204 244.596 304.98 243.78 303.552C243.576 303.144 243.372 302.94 243.168 302.532C242.964 302.328 242.76 302.124 242.76 301.716C242.556 301.308 242.352 300.696 242.148 300.084C241.944 298.86 242.148 297.636 242.556 296.412C242.964 295.188 243.372 293.76 243.372 292.332C243.168 289.884 242.148 287.64 240.72 285.804C244.188 286.008 247.248 284.988 250.308 283.968V283.968ZM240.516 286.824C240.72 286.824 240.72 286.824 240.516 286.824C241.944 288.66 242.556 291.108 242.556 293.148C242.556 295.596 240.312 297.84 240.72 301.104C240.72 301.92 240.924 302.736 241.332 303.348C241.536 303.756 241.74 303.96 241.944 304.368C242.148 304.572 242.352 304.776 242.352 305.184C242.76 306.204 243.168 307.428 243.372 308.856C243.78 311.1 243.984 313.344 243.984 315.792C241.74 316.608 239.7 317.22 237.456 317.832C235.008 318.648 232.56 319.056 229.908 319.464L229.092 319.668C229.092 315.792 228.276 312.12 226.236 308.856C225.624 307.836 225.012 307.428 224.808 306.612C224.604 306 224.604 305.184 225.012 304.368C225.624 302.94 226.848 301.308 228.276 300.288L228.48 300.084V299.88C228.48 297.84 228.48 295.8 228.276 293.964C228.072 292.332 227.868 290.7 227.256 289.068C231.948 288.252 236.232 287.64 240.516 286.824V286.824ZM129.336 286.008C129.132 283.764 129.744 281.112 130.356 278.868C131.172 276.42 131.988 274.176 133.212 271.932C133.824 270.912 134.436 269.688 135.252 268.872C135.66 268.464 136.068 268.056 136.68 267.648C137.088 267.24 137.7 267.24 138.108 267.852C141.168 273.156 145.86 277.236 151.368 280.092C156.672 282.948 162.588 284.784 168.504 286.008C174.42 287.232 180.336 288.048 186.456 288.66C192.372 289.272 198.492 289.68 204.612 289.884C212.364 290.088 219.912 289.884 227.664 289.068C227.868 289.68 227.868 290.292 227.868 290.904C227.868 291.924 228.072 292.944 227.868 293.76C227.868 295.596 227.664 297.432 227.46 299.268C225.828 300.288 224.4 301.716 223.584 303.552C223.176 304.572 222.972 305.796 223.38 307.02C223.584 307.632 223.788 308.04 224.196 308.652C224.604 309.264 224.808 309.468 225.012 309.876C225.828 311.304 226.644 313.14 227.052 314.976C227.46 316.608 227.664 318.24 227.664 319.872L222.36 320.28C217.26 321.096 211.956 321.912 206.856 322.524C201.552 323.34 196.452 323.952 191.352 324.564C190.74 324.564 190.128 324.768 189.516 324.768C189.312 324.36 189.312 323.952 189.312 323.34C189.516 320.892 190.536 318.24 191.352 315.588V315.18C191.352 310.896 191.556 306.408 191.352 301.92L191.556 295.392C191.76 293.148 191.76 290.904 192.168 288.864C191.352 290.904 191.148 293.148 190.74 295.392C190.332 297.636 190.128 299.676 189.924 301.92C189.516 306.204 189.516 310.692 189.312 314.976C188.904 316.2 188.292 317.424 187.884 318.852C187.476 320.28 187.272 321.708 187.068 323.136C187.068 323.544 187.068 324.36 187.272 324.768C185.844 324.768 184.62 324.972 183.396 324.972C182.784 324.972 182.376 324.972 181.764 324.768C181.152 324.564 180.336 324.564 179.724 324.36C178.296 324.156 177.072 323.952 175.848 323.748H175.236C175.236 323.136 175.032 322.524 175.032 321.912C174.624 319.668 174.42 317.424 174.624 315.18C174.828 314.16 175.032 313.14 175.644 311.916C176.052 310.692 176.256 309.468 176.46 308.244C176.868 305.796 176.868 303.348 176.868 301.104C177.072 298.656 176.664 296.208 176.46 293.964C176.256 291.72 176.052 289.272 177.072 287.028C175.644 289.068 175.644 291.516 175.44 293.964C175.44 296.412 175.44 298.656 175.236 300.9C175.032 303.348 175.032 305.592 174.624 307.836C174.42 308.856 174.216 310.08 173.808 311.1C173.4 312.12 172.992 313.344 172.788 314.568C172.38 317.016 172.788 319.668 173.196 321.912C173.196 322.32 173.4 322.728 173.4 323.136C168.912 322.728 164.628 322.32 160.14 322.116C164.628 323.136 169.116 323.952 173.604 324.972V325.176C173.604 326.196 173.196 327.216 172.992 328.44C172.788 329.664 172.584 330.684 172.584 332.112C172.584 333.336 172.788 334.56 172.788 335.784C172.992 337.008 173.196 338.232 173.604 339.456L164.424 336.192C160.956 334.968 157.488 333.744 153.816 332.52C153.816 331.704 154.02 330.888 154.224 330.072C154.428 329.46 154.632 328.644 154.836 328.032C155.04 327.42 155.448 326.604 155.244 325.788C155.244 324.156 154.632 322.728 154.224 321.504C153.816 320.076 153.816 318.852 153.816 317.424C154.02 314.772 155.448 312.12 156.672 309.672C157.896 307.428 158.916 304.776 159.12 302.124C160.344 302.328 161.568 302.736 162.588 302.94C166.26 303.756 170.34 304.368 174.216 303.756C172.38 303.552 170.34 303.348 168.504 302.736C166.668 302.328 164.832 301.716 162.996 301.308C161.568 300.9 160.344 300.492 158.916 300.084C158.508 298.86 158.304 297.636 158.1 296.208C157.896 294.78 157.692 293.352 158.1 291.924C158.508 290.496 158.712 289.068 159.12 287.64C159.528 286.212 159.936 284.784 160.956 283.56C159.732 284.58 159.12 286.008 158.508 287.436C157.896 288.864 157.284 290.292 156.876 291.72C156.468 293.352 156.468 294.984 156.468 296.412C156.468 297.432 156.672 298.452 156.876 299.472C155.244 299.064 153.612 298.452 151.776 298.044C148.92 297.228 145.86 296.208 142.8 295.392V292.944C142.8 291.516 142.8 290.088 142.596 288.66C142.392 287.436 143.004 286.008 143.412 284.784C144.432 282.132 145.248 279.276 146.676 277.032C145.656 278.052 145.044 279.276 144.228 280.5C143.616 281.724 142.8 282.948 142.392 284.376C142.188 284.988 141.78 285.6 141.576 286.416C141.372 286.824 141.372 287.028 141.168 287.436C141.168 287.64 140.964 287.844 140.964 288.048V288.66C140.964 290.088 140.76 291.516 140.76 292.944V294.78C139.332 294.372 138.108 293.964 136.68 293.76C136.476 291.924 136.272 290.088 136.476 288.252C136.476 286.416 136.68 284.376 136.884 282.54C137.292 280.704 137.7 278.868 138.312 277.032C138.924 275.196 139.74 273.564 140.964 271.932C139.536 273.36 138.516 274.992 137.496 276.624C136.68 278.46 135.864 280.296 135.456 282.132C135.048 283.968 134.64 286.008 134.64 288.048C134.436 289.68 134.64 291.312 134.64 292.944C133.008 292.536 131.172 292.128 129.336 291.72C130.152 290.088 129.744 287.844 129.336 286.008V286.008ZM153.408 332.724C149.532 331.296 145.452 329.868 141.576 328.644C141.372 325.788 141.576 323.136 141.984 320.484C142.392 319.056 142.8 317.22 143.208 315.588C143.412 313.956 143.412 312.324 143.208 310.488V310.692V297.84C145.86 298.86 148.716 299.676 151.572 300.492C153.408 301.104 155.448 301.512 157.284 302.124C157.08 304.572 156.264 307.02 155.04 309.264C153.612 311.916 152.388 314.568 152.184 317.832C151.98 319.464 152.388 321.096 152.796 322.32C153.204 323.748 154.02 325.176 154.02 326.4C154.02 327.012 154.02 327.624 153.816 328.236C153.612 329.052 153.612 329.664 153.612 330.48C153.204 331.296 153.204 331.908 153.408 332.724V332.724ZM140.556 325.176C140.76 326.4 140.964 327.42 141.168 328.44C138.312 327.42 135.456 326.604 132.804 325.584C132.6 323.136 132.396 320.688 132.396 318.24C132.6 317.016 132.6 315.384 133.212 314.568C134.232 313.344 134.844 311.916 135.252 310.488C136.068 307.632 135.864 304.368 135.048 301.512C134.844 300.696 134.64 300.084 134.436 299.472V297.84C134.64 296.82 135.66 295.8 136.476 295.188C137.904 295.8 139.332 296.412 140.964 296.82V310.284C141.168 311.712 141.168 313.344 141.168 314.976C141.168 316.608 140.76 318.036 140.556 319.872C140.352 321.912 140.352 323.544 140.556 325.176V325.176ZM24.072 434.928C24.276 427.992 24.48 421.056 24.276 413.916C24.072 410.448 24.48 406.572 24.684 402.9C24.888 399.228 25.296 395.352 25.092 391.476L24.888 390.048L24.684 388.62C24.48 388.008 24.48 386.988 24.684 386.172C24.888 384.54 25.092 382.704 25.5 380.868C26.316 377.4 27.54 373.728 28.764 370.26C29.988 366.792 31.416 363.324 32.64 359.856C33.252 358.224 34.272 356.592 35.292 356.184C35.496 355.98 35.7 355.98 35.904 355.98C36.108 355.98 36.312 355.98 37.128 356.184C37.332 356.184 37.74 356.184 38.148 355.98C38.352 355.98 38.556 355.776 38.556 355.572C41.616 361.692 44.676 367.608 47.736 373.524C49.368 376.788 51 379.848 52.428 383.112C53.04 384.744 53.856 386.376 54.264 387.804C54.672 389.436 54.876 391.272 55.284 392.904C55.896 396.372 56.304 400.044 56.712 403.512L58.14 414.324C58.956 421.26 59.976 427.992 61.2 434.928H24.072V434.928ZM293.964 435.336C263.772 435.54 233.58 435.948 203.388 435.948C173.196 436.152 143.004 435.948 112.812 435.744L61.2 435.336C61.404 428.4 61.404 421.464 60.996 414.528C60.588 407.184 59.976 400.044 58.956 392.7C58.752 390.864 58.344 389.028 57.936 387.192C57.528 385.152 56.508 383.52 55.896 381.888C54.264 378.624 52.428 375.36 50.388 372.3C46.716 366.588 43.044 361.08 38.76 355.776C38.964 355.572 38.964 355.572 38.964 355.368C38.964 355.164 39.168 354.96 39.168 354.96V354.756C39.168 354.552 39.372 354.348 39.78 354.144C41.004 353.124 42.636 352.308 44.268 351.492C45.9 350.676 47.532 349.86 49.368 349.044C52.632 347.412 56.304 346.188 59.772 344.76C66.708 341.904 73.848 339.252 80.58 336.396C84.048 334.968 87.516 333.336 90.78 331.704C94.044 330.072 97.716 329.052 101.184 328.032C108.324 325.992 115.668 324.36 123.012 322.728L123.42 322.524V322.116C123.012 319.668 122.808 317.22 122.808 314.568V312.732C122.808 312.12 123.012 311.712 123.216 311.1C123.828 310.08 124.848 309.468 125.868 308.448C127.704 306.612 128.52 303.756 128.316 301.104C128.316 299.88 128.316 298.656 128.52 297.432C128.724 296.208 129.132 295.188 129.54 293.76C129.744 293.352 129.744 292.944 129.948 292.536C131.58 293.352 133.008 293.964 134.64 294.576C133.824 295.392 133.008 296.412 132.6 297.636C132.396 298.452 132.396 299.268 132.396 300.084C132.6 300.9 132.804 301.512 133.008 302.328C133.824 304.98 134.028 307.632 133.416 310.284C133.008 311.508 132.804 312.936 131.988 313.956C131.784 314.16 131.58 314.772 131.376 315.18C131.172 315.588 131.172 315.996 131.172 316.404V318.648C131.376 321.096 131.784 323.544 132.396 325.788C129.744 324.972 126.888 323.952 124.032 323.136L132.6 326.808V327.012V326.808C142.596 331.296 152.796 335.58 162.996 339.66L172.788 343.536L177.684 345.576L178.908 345.984L180.336 346.392C181.356 346.596 182.172 347.004 183.192 347.004C190.536 348.024 197.676 347.82 204.816 347.412C218.892 346.392 232.968 344.556 246.84 341.7C248.472 341.292 250.308 340.884 252.144 340.476C253.98 340.068 255.816 339.252 257.244 338.436C257.448 338.436 257.448 338.232 257.652 338.232V338.844C257.652 338.64 257.856 338.436 257.856 338.028C260.916 336.192 263.568 334.152 266.22 332.112C270.912 328.032 275.4 323.748 279.684 319.056L281.112 319.26L284.784 319.668C286.62 320.28 288.66 321.096 290.496 321.912L296.412 324.36L308.244 329.256L320.28 334.152C324.156 335.784 328.44 337.212 332.52 338.64C340.68 341.292 349.044 343.536 357 346.596C360.876 348.024 364.956 349.656 368.22 351.696C369.852 352.716 371.28 354.144 372.3 355.572C372.912 356.388 373.32 357.204 373.728 357.816C373.932 358.224 374.136 358.632 374.136 359.04C374.34 359.448 374.34 359.856 374.34 360.06V360.876C371.688 362.1 369.24 363.528 366.792 365.16C363.936 367.404 361.08 369.648 358.632 372.708C357.408 374.136 356.592 375.972 355.776 377.808C354.96 379.44 354.552 381.276 353.94 382.908C352.716 386.376 351.9 389.844 350.88 393.312C350.064 396.78 349.248 400.248 348.636 403.92L348.024 409.428C347.82 411.264 347.82 413.1 347.82 415.14C348.636 421.872 349.044 428.4 349.452 435.336H293.964V435.336ZM349.656 434.928C350.676 428.196 351.288 421.464 351.084 414.732C351.288 411.468 351.9 408 352.512 404.532C353.124 401.064 353.94 397.596 354.756 394.128C355.572 390.66 356.388 387.192 357.408 383.928C358.428 380.664 359.244 377.196 361.08 374.34C362.916 371.484 365.364 369.036 367.812 366.588C369.852 364.752 371.892 362.916 374.136 361.284V361.692L375.156 361.896C375.156 361.896 375.564 362.304 375.972 362.916C376.38 363.528 376.584 364.14 376.992 364.752C377.604 365.976 378.012 367.608 378.624 369.036C379.44 372.096 380.256 375.36 380.664 378.216C381.48 384.54 381.684 391.068 381.684 397.392C381.684 400.656 381.684 403.92 381.276 406.776C380.868 410.244 380.868 413.508 381.072 416.976C381.276 422.892 381.888 428.808 382.296 434.52L349.656 434.928V434.928Z" fill="#180628"/>
</g>
</g>
</g>
</g>
<g id="head">
<g id="svga-group-ears-left-move">
<g id="svga-group-ears-left">
<path id="SvgjsPath31842" d="M139.611 159.776C139.611 159.776 134.299 149.561 130.34 145.112C126.382 140.664 116.371 133.368 114.007 133.889C111.643 134.411 101.272 162.592 100.252 166.8C99.2117 171.007 112.944 184.344 114.261 186.704C115.578 189.064 115.361 194.839 115.103 196.411C114.845 197.983 125.637 202.133 131.138 200.801C136.66 199.449 151.547 181.241 139.611 159.776Z" fill="#A56B3F"/>
<path id="SvgjsPath31843" d="M138.899 172.897C138.899 172.897 126.743 156.411 118.577 150.922C110.411 145.453 107.086 166.746 107.626 168.845C108.167 170.944 117.154 181.672 120.568 183.226C123.982 184.781 135.515 181.849 138.899 172.897V172.897Z" fill="#96592A"/>
<path id="SvgjsPath31844" d="M100.227 165.78C100.107 166.229 99.9454 166.618 99.9071 167.148C99.9095 167.638 99.973 168.127 100.138 168.575C100.738 170.347 101.745 171.872 102.732 173.357C103.739 174.841 104.847 176.264 105.976 177.666C108.213 180.47 110.592 183.172 112.829 185.895C113.096 186.241 113.383 186.586 113.568 186.891C113.753 187.196 113.877 187.563 114.002 187.95C114.23 188.724 114.336 189.58 114.401 190.437C114.532 192.15 114.52 193.925 114.345 195.639L114.266 196.272C114.229 197.088 114.598 197.331 114.762 197.555C115.192 198.001 115.602 198.244 116.011 198.507C116.85 199.013 117.688 199.397 118.546 199.74C120.263 200.445 122 200.988 123.797 201.387C125.594 201.787 127.432 202.043 129.349 201.952C130.307 201.907 131.286 201.78 132.263 201.326C132.793 201.16 133.138 200.853 133.565 200.606C133.992 200.359 134.358 200.051 134.724 199.744C140.433 194.84 143.622 187.705 144.382 180.48C144.639 178.663 144.508 176.848 144.499 175.033C144.246 173.239 144.135 171.424 143.596 169.692C142.845 166.167 141.319 162.869 139.672 159.695C138.045 156.499 136.276 153.407 134.446 150.336C133.52 148.79 132.554 147.285 131.486 145.821C130.398 144.357 129.127 143.058 127.815 141.82C125.185 139.339 122.326 137.112 119.276 135.169C118.499 134.684 117.721 134.198 116.863 133.814C116.454 133.612 115.984 133.451 115.534 133.27C115.044 133.15 114.533 132.969 113.759 133.136C112.822 133.609 112.784 133.997 112.439 134.407C112.175 134.816 111.933 135.205 111.71 135.614C111.265 136.412 110.861 137.23 110.477 138.047C107.531 144.63 105.258 151.414 102.822 158.138L101.071 163.205L100.227 165.78V165.78ZM100.499 167.186C100.518 166.839 100.679 166.369 100.779 165.961L101.582 163.407C102.145 161.711 102.77 160.035 103.394 158.359C104.622 155.008 105.973 151.696 107.365 148.426C108.757 145.155 110.21 141.884 111.786 138.714C112.17 137.917 112.574 137.14 112.999 136.383C113.222 136.015 113.444 135.646 113.667 135.298C113.789 135.114 113.91 134.991 114.012 134.828C114.072 134.746 114.174 134.684 114.194 134.663C114.256 134.663 114.358 134.663 114.48 134.682C114.664 134.722 114.827 134.762 115.011 134.823C115.379 134.964 115.767 135.105 116.156 135.307C116.912 135.67 117.69 136.095 118.447 136.52C121.454 138.321 124.3 140.47 127.044 142.701C128.396 143.837 129.707 145.013 130.836 146.354C131.964 147.695 133.012 149.159 134.018 150.623C136.011 153.572 137.781 156.684 139.489 159.818C142.804 166.085 144.512 173.401 143.178 180.343C142.583 183.794 141.497 187.144 139.86 190.233C138.222 193.28 136.155 196.187 133.534 198.342C133.209 198.629 132.884 198.875 132.538 199.081C132.192 199.266 131.846 199.574 131.5 199.657C130.869 199.986 130.033 200.092 129.217 200.117C127.565 200.186 125.83 199.95 124.135 199.611C122.44 199.252 120.765 198.77 119.151 198.146C118.359 197.838 117.587 197.481 116.84 197.075C116.493 196.873 116.145 196.63 115.94 196.447L115.878 196.386L115.937 195.856C116.071 193.999 116.082 192.183 115.89 190.348C115.796 189.409 115.614 188.481 115.346 187.576C115.181 187.108 115.015 186.639 114.707 186.172C114.439 185.779 114.144 185.405 113.825 185.054C111.445 182.311 108.964 179.794 106.626 177.092C105.457 175.751 104.328 174.389 103.26 172.966C102.213 171.543 101.186 170.059 100.627 168.43C100.564 167.981 100.501 167.574 100.499 167.186V167.186Z" fill="#96592A"/>
<path id="SvgjsPath31845" d="M111.214 155.506C111.901 154.116 112.649 152.643 113.99 151.637C114.62 151.124 115.659 150.875 116.457 151.299C117.255 151.683 117.788 152.374 118.24 152.984C120.129 155.504 121.733 158.21 123.134 160.998C125.833 166.615 128.085 172.419 129.766 178.429L129.603 178.491C126.822 172.914 124.327 167.276 121.709 161.698C120.431 158.91 119.234 156.039 117.63 153.436C117.239 152.764 116.788 152.195 116.195 151.851C115.601 151.528 114.888 151.674 114.298 152.085C113.16 152.988 112.453 154.419 111.848 155.789C110.739 158.63 110.142 161.693 109.973 164.672C109.936 165.407 109.939 166.161 110.065 166.834C110.107 167.181 110.19 167.466 110.294 167.71C110.479 168.036 110.623 168.361 110.829 168.666C111.589 169.948 112.473 171.188 113.397 172.408C114.32 173.627 115.244 174.847 116.229 176.025L117.686 177.793C117.809 177.935 117.932 178.057 118.055 178.199C118.458 177.116 118.737 175.789 119.017 174.564L119.873 170.214C118.64 168.302 117.427 166.37 116.275 164.397L116.418 164.294C117.956 166.103 119.454 167.931 120.912 169.781L121.035 169.923L121.015 170.168C120.9 171.725 120.723 173.278 120.487 174.822C120.209 176.394 120.094 177.863 119.429 179.58C119.348 179.723 119.328 179.805 119.186 179.989C119.125 180.071 119.085 180.132 118.922 180.256C118.861 180.317 118.78 180.358 118.719 180.399C118.596 180.461 118.433 180.503 118.291 180.503C118.026 180.546 117.698 180.364 117.576 180.283L117.432 180.161C117.334 180.09 117.245 180.008 117.166 179.917C116.858 179.613 116.592 179.328 116.325 179.044C115.792 178.455 115.279 177.866 114.766 177.256C113.781 176.037 112.796 174.818 111.913 173.516C111.009 172.236 110.146 170.914 109.364 169.51C109.158 169.164 108.993 168.777 108.808 168.411C108.622 167.922 108.518 167.474 108.475 167.046C108.389 166.189 108.446 165.373 108.524 164.577C108.876 161.373 109.881 158.369 111.214 155.506V155.506Z" fill="#77390A"/>
</g>
</g>
<g id="svga-group-ears-right-move">
<g id="svga-group-ears-right">
<path id="SvgjsPath31846" d="M268.497 159.157C268.497 159.157 273.711 148.891 277.627 144.405C281.542 139.918 291.483 132.526 293.851 133.025C296.22 133.523 306.861 161.604 307.922 165.802C309.003 169.999 295.399 183.467 294.105 185.84C292.811 188.212 293.083 193.984 293.356 195.554C293.629 197.123 282.878 201.378 277.364 200.098C271.829 198.799 256.769 180.736 268.497 159.157Z" fill="#A56B3F"/>
<path id="SvgjsPath31847" d="M269.335 172.27C269.335 172.27 281.332 155.668 289.445 150.101C297.558 144.554 301.088 165.814 300.567 167.918C300.047 170.021 291.164 180.835 287.765 182.423C284.365 184.01 272.805 181.189 269.335 172.27V172.27Z" fill="#96592A"/>
<path id="SvgjsPath31848" d="M307.068 162.236L305.269 157.185C302.748 150.486 300.431 143.724 297.421 137.169C297.029 136.355 296.617 135.541 296.165 134.748C295.938 134.341 295.712 133.954 295.425 133.548C295.076 133.141 295.033 132.754 294.093 132.289C293.317 132.13 292.808 132.316 292.319 132.441C291.85 132.606 291.402 132.771 290.995 132.998C290.14 133.389 289.367 133.883 288.595 134.376C285.544 136.37 282.719 138.607 280.12 141.108C278.82 142.359 277.562 143.67 276.488 145.144C275.414 146.598 274.483 148.133 273.572 149.687C271.771 152.776 270.011 155.906 268.436 159.096C266.819 162.286 265.325 165.578 264.608 169.131C264.086 170.868 264.013 172.684 263.756 174.48C263.765 176.296 263.651 178.112 263.925 179.926C264.735 187.144 267.992 194.248 273.769 199.096C274.117 199.4 274.506 199.704 274.936 199.947C275.365 200.19 275.713 200.494 276.245 200.655C277.246 201.119 278.206 201.216 279.165 201.253C281.083 201.325 282.917 201.051 284.711 200.634C286.504 200.218 288.255 199.659 289.945 198.936C290.8 198.565 291.635 198.173 292.469 197.68C292.876 197.413 293.282 197.166 293.709 196.715C293.871 196.469 294.237 196.243 294.192 195.428L294.107 194.796C293.916 193.083 293.907 191.308 294.001 189.594C294.058 188.737 294.176 187.88 294.376 187.103C294.497 186.715 294.618 186.347 294.8 186.041C295.002 185.734 295.266 185.365 295.529 185.037C297.76 182.293 300.113 179.569 302.303 176.743C303.418 175.33 304.493 173.897 305.506 172.403C306.498 170.888 307.47 169.374 308.053 167.596C308.193 167.147 308.273 166.677 308.27 166.167C308.227 165.617 308.062 165.25 307.937 164.802L307.068 162.236V162.236ZM307.481 167.395C306.938 169.03 305.925 170.524 304.891 171.957C303.858 173.39 302.722 174.762 301.566 176.114C299.253 178.838 296.777 181.38 294.444 184.145C294.16 184.493 293.856 184.841 293.572 185.271C293.289 185.742 293.107 186.212 292.946 186.682C292.688 187.589 292.515 188.519 292.429 189.459C292.255 191.296 292.263 193.111 292.435 194.967L292.499 195.497C292.479 195.517 292.479 195.538 292.438 195.558C292.235 195.763 291.89 196.01 291.544 196.195C290.832 196.607 290.058 196.977 289.244 197.287C287.635 197.927 285.965 198.425 284.273 198.8C282.582 199.155 280.869 199.408 279.196 199.355C278.38 199.339 277.543 199.22 276.909 198.917C276.562 198.838 276.214 198.554 275.866 198.351C275.519 198.169 275.191 197.906 274.863 197.622C272.221 195.492 270.127 192.606 268.46 189.574C266.793 186.522 265.675 183.161 265.046 179.717C263.646 172.787 265.263 165.456 268.538 159.157C270.216 156.007 271.955 152.878 273.92 149.91C274.912 148.436 275.946 146.983 277.061 145.611C278.177 144.259 279.477 143.07 280.818 141.921C283.54 139.664 286.365 137.488 289.356 135.658C290.108 135.205 290.861 134.773 291.634 134.423C292.021 134.217 292.388 134.072 292.774 133.928C292.958 133.866 293.121 133.844 293.304 133.782C293.447 133.761 293.528 133.761 293.59 133.761C293.61 133.781 293.713 133.862 293.774 133.923C293.897 134.085 294.02 134.207 294.123 134.39C294.369 134.716 294.575 135.102 294.801 135.468C295.233 136.221 295.645 136.994 296.037 137.788C297.643 140.942 299.127 144.199 300.551 147.456C301.994 150.714 303.357 154.012 304.617 157.351C305.258 159.021 305.898 160.691 306.477 162.381L307.306 164.927C307.43 165.335 307.575 165.803 307.597 166.15C307.681 166.578 307.621 166.986 307.481 167.395V167.395Z" fill="#96592A"/>
<path id="SvgjsPath31849" d="M296.852 154.614C296.152 153.23 295.39 151.765 294.039 150.772C293.404 150.265 292.362 150.025 291.569 150.458C290.775 150.849 290.248 151.545 289.802 152.159C287.937 154.698 286.359 157.419 284.986 160.22C282.34 165.863 280.145 171.688 278.521 177.714L278.685 177.774C281.412 172.171 283.853 166.509 286.417 160.907C287.668 158.106 288.838 155.224 290.416 152.605C290.801 151.93 291.247 151.357 291.837 151.007C292.427 150.678 293.141 150.817 293.735 151.222C294.881 152.115 295.602 153.539 296.221 154.903C297.357 157.733 297.983 160.79 298.181 163.768C298.225 164.502 298.209 165.257 298.11 165.93C298.071 166.277 297.991 166.563 297.89 166.809C297.708 167.136 297.566 167.463 297.364 167.77C296.615 169.059 295.744 170.307 294.832 171.536C293.92 172.764 293.008 173.993 292.034 175.18L290.594 176.962C290.473 177.106 290.351 177.229 290.229 177.372C289.816 176.293 289.524 174.968 289.233 173.746L288.334 169.405C289.549 167.481 290.744 165.537 291.876 163.553L291.733 163.452C290.212 165.275 288.732 167.118 287.292 168.981L287.17 169.125L287.192 169.369C287.322 170.919 287.513 172.469 287.765 174.018C288.058 175.587 288.188 177.055 288.869 178.766C288.951 178.908 288.972 178.99 289.116 179.173C289.177 179.254 289.219 179.315 289.382 179.436C289.444 179.497 289.526 179.538 289.587 179.578C289.71 179.639 289.873 179.679 290.016 179.678C290.281 179.718 290.607 179.533 290.729 179.45L290.871 179.327C290.973 179.245 291.074 179.163 291.135 179.081C291.44 178.774 291.703 178.487 291.967 178.2C292.495 177.606 293.002 177.012 293.509 176.397C294.482 175.169 295.456 173.94 296.326 172.63C297.218 171.341 298.068 170.011 298.837 168.599C299.039 168.252 299.2 167.863 299.382 167.495C299.564 167.005 299.663 166.555 299.702 166.127C299.78 165.27 299.714 164.454 299.629 163.659C299.246 160.458 298.212 157.464 296.852 154.614V154.614Z" fill="#77390A"/>
</g>
</g>
<g id="svga-group-faceshape-wrap">
<g id="svga-group-faceshape-single">
<path id="SvgjsPath31584" d="M286.182 99.3605C281.596 78.9823 273.173 66.7827 254.971 57.078C235.95 46.9693 203.516 47.5332 203.516 47.5332C203.516 47.5332 171.079 47.2811 152.156 57.5721C134.251 67.4503 125.742 79.7314 121.352 100.153C119.555 108.321 121.485 127.896 121.485 127.896C121.485 127.896 124.87 152.972 125.132 165.007C125.597 176.837 128.164 201.713 129.866 216.189C131.934 230.623 132.92 231.842 132.92 231.842C158.05 261.097 179.455 283.272 185.702 288.505C191.745 293.576 215.101 293.137 221.731 289.025C228.769 284.667 240.906 271.756 275.581 232.299C275.581 232.299 276.121 230.154 277.683 215.662C279.246 201.171 281.869 182.369 282.618 164.25C282.969 152.417 285.908 127.106 285.908 127.106C286.111 126.901 288.057 107.512 286.182 99.3605V99.3605Z" fill="#A56B3F"/>
<path id="SvgjsPath31585" d="M286.182 99.3605C281.596 78.9823 273.173 66.7827 254.971 57.078C235.95 46.9693 203.516 47.5332 203.516 47.5332C203.516 47.5332 171.079 47.2811 152.156 57.5721C134.251 67.4503 125.742 79.7314 121.352 100.153C119.555 108.321 121.485 127.896 121.485 127.896C121.485 127.896 124.87 152.972 125.132 165.007C125.597 176.837 128.164 201.713 129.866 216.189C131.934 230.623 132.92 231.842 132.92 231.842C158.05 261.097 179.455 283.272 185.702 288.505C191.745 293.576 215.101 293.137 221.731 289.025C228.769 284.667 240.906 271.756 275.581 232.299C275.581 232.299 276.121 230.154 277.683 215.662C279.246 201.171 281.869 182.369 282.618 164.25C282.969 152.417 285.908 127.106 285.908 127.106C286.111 126.901 288.057 107.512 286.182 99.3605V99.3605ZM286.221 120.148L285.579 126.761L285.458 127.027C284.378 135.784 283.237 144.52 282.341 153.297C281.872 157.665 281.547 162.134 281.262 166.501C280.936 170.868 280.508 175.236 280.04 179.604C279.082 188.34 277.798 197.036 276.657 205.773C276.066 210.121 275.475 214.551 274.965 218.899L274.12 225.431L273.666 228.677L273.408 230.269L273.249 231.106L251.213 255.733C243.664 264.011 236.177 272.472 228.237 280.161C226.247 282.047 224.216 283.913 222.143 285.494C221.635 285.904 221.106 286.233 220.577 286.603C220.293 286.809 219.418 287.262 219.133 287.365C218.054 287.819 216.811 288.172 215.547 288.443C210.412 289.549 204.844 289.82 199.457 289.561C196.763 289.39 194.069 289.097 191.577 288.456C190.352 288.136 189.146 287.733 188.185 287.228C187.98 287.086 187.141 286.539 186.875 286.296C186.363 285.87 185.871 285.424 185.359 284.957C181.302 281.243 177.365 277.202 173.429 273.223C165.578 265.223 157.888 257.018 150.321 248.731L138.979 236.28L136.19 233.152L134.795 231.588L134.447 231.202C134.447 231.202 134.097 230.592 134.034 230.347C133.288 227.821 132.764 225.008 132.262 222.277C131.215 216.774 130.597 211.249 129.897 205.642C129.238 200.056 128.517 194.49 127.98 188.882C127.423 183.295 126.886 177.688 126.472 172.1C126.016 166.533 125.948 160.882 125.411 155.255C124.956 149.626 124.378 144.039 123.739 138.432C123.161 132.805 122.319 127.28 122.108 121.692C121.837 116.103 121.728 110.473 122.151 104.984C122.266 103.616 122.423 102.249 122.702 100.962C122.982 99.6552 123.363 98.2866 123.683 96.9386C124.425 94.2627 125.248 91.6271 126.236 89.0723C128.21 83.9423 130.778 79.0747 134.185 74.8559C137.51 70.5763 141.654 67.0067 146.127 63.9048C148.364 62.3436 150.724 60.9655 153.125 59.6279C155.485 58.3518 157.969 57.3198 160.535 56.3691C165.666 54.5084 171.046 53.2381 176.488 52.2735C181.93 51.2682 187.456 50.5888 192.982 50.1543C198.529 49.6992 204.056 49.4482 209.626 49.5847C220.745 49.8168 231.949 50.7626 242.693 53.5466C248.086 54.9487 253.236 56.9232 258.064 59.7356C262.892 62.4868 267.477 65.7288 271.392 69.7085C275.206 73.7498 278.472 78.3649 280.781 83.4743C283.131 88.563 284.789 93.9407 286.04 99.4224C286.52 101.664 286.653 103.989 286.746 106.294C286.818 108.599 286.789 110.925 286.718 113.23C286.525 115.536 286.414 117.842 286.221 120.148V120.148Z" fill="#77390A"/>
</g>
</g>
<g id="svga-group-eyes-left-move">
<g id="svga-group-eyes-left">
<g id="svga-group-eyesback-left">
<path id="SvgjsPath31542" d="M163.574 141.179C178.874 141.106 191.168 152.476 191.237 166.663C191.305 180.85 179.12 192.337 163.82 192.41C148.52 192.484 136.225 181.114 136.157 166.927C136.089 152.74 148.274 141.253 163.574 141.179Z" fill="white"/>
</g>
<g id="svga-group-eyesiriswrapper-left">
<g id="svga-group-eyesiriscontrol-left">
<g id="svga-group-eyesiris-left">
<path id="SvgjsPath31619" d="M163.647 156.352C169.563 156.323 174.481 161.029 174.509 166.743C174.536 172.457 169.663 177.21 163.747 177.238C157.831 177.267 152.912 172.561 152.885 166.847C152.857 161.133 157.731 156.38 163.647 156.352Z" fill="#492B04"/>
<path id="SvgjsPath31620" d="M163.649 156.943C169.361 156.915 174.075 161.425 174.102 166.942C174.128 172.459 169.458 177.014 163.746 177.041C158.034 177.068 153.32 172.559 153.294 167.042C153.267 161.525 157.937 156.97 163.649 156.943ZM163.644 155.761C157.32 155.791 152.244 160.741 152.273 166.85C152.302 172.958 157.426 177.86 163.75 177.829C170.074 177.799 175.15 172.848 175.121 166.74C175.091 160.632 169.968 155.73 163.644 155.761Z" fill="#2A1800"/>
<path id="SvgjsPath31621" d="M157.999 169.778C158.011 172.34 159.043 174.699 160.682 176.268C161.703 176.46 162.724 176.652 163.744 176.647C169.456 176.62 174.126 172.065 174.1 166.548C174.09 164.577 173.469 162.61 172.441 161.039C171.01 160.454 169.581 160.067 167.949 160.075C162.238 160.299 157.974 164.655 157.999 169.778V169.778Z" fill="#58380E"/>
<path id="SvgjsPath31622" d="M163.671 161.475C166.731 161.46 169.19 163.813 169.205 166.768C169.219 169.724 166.782 172.1 163.722 172.115C160.662 172.13 158.203 169.777 158.189 166.821C158.175 163.866 160.611 161.489 163.671 161.475Z" fill="black"/>
<path id="SvgjsPath31623" d="M161.221 161.092C162.853 161.085 164.083 162.261 164.091 163.837C164.098 165.414 162.88 166.602 161.248 166.61C159.616 166.617 158.386 165.441 158.379 163.865C158.371 162.288 159.793 161.099 161.221 161.092ZM166.767 168.948C167.787 168.943 168.607 169.727 168.612 170.712C168.616 171.697 167.804 172.489 166.784 172.494C165.764 172.499 164.944 171.715 164.94 170.73C164.935 169.745 165.747 168.953 166.767 168.948Z" fill="white"/>
</g>
</g>
</g>
<g id="svga-group-eyesfront-left">
<path id="SvgjsPath31550" d="M163.569 140.194C147.657 140.271 134.863 152.352 134.934 167.13C135.005 181.908 147.915 193.866 163.827 193.79C179.738 193.713 192.532 181.632 192.461 166.854C192.39 152.076 179.481 140.118 163.569 140.194ZM163.776 183.346C152.556 183.4 141.922 177.934 141.71 176.162C141.292 174.193 143.506 167.877 148.173 162.732C153.044 157.585 164.46 155.757 174.271 159.65C184.081 163.544 186.382 175.356 186.382 175.356C186.603 178.902 174.996 183.292 163.776 183.346V183.346Z" fill="#A56B3F"/>
<path id="SvgjsPath31551" d="M182.462 166.114C183.89 166.107 188.786 166.083 187.356 165.696C184.904 164.92 175.896 158.263 173.443 157.29C170.991 156.316 162.211 154.782 160.783 154.789C159.355 154.796 146.326 160.376 145.106 161.17C143.885 161.964 140.674 173.014 139.861 173.609C139.455 174.005 140.682 174.59 141.5 174.98C141.501 175.178 141.502 175.375 141.299 175.573L141.301 175.967C141.302 176.164 141.507 176.36 141.508 176.557C141.713 176.95 141.918 177.146 142.123 177.342C142.533 177.734 143.147 178.125 143.557 178.517C144.58 179.104 145.603 179.69 146.829 180.275C151.123 182.225 155.82 183.385 160.718 183.755C165.616 184.126 170.305 183.512 174.992 182.307C177.233 181.705 179.473 180.906 181.712 179.91C182.729 179.314 183.747 178.915 184.764 178.122L185.982 176.934C186.388 176.538 186.589 175.946 186.586 175.355C186.168 173.189 185.137 171.027 184.107 168.864C183.491 168.079 183.079 167.096 182.462 166.114V166.114ZM185.778 176.935L184.56 178.123C183.542 178.719 182.525 179.315 181.507 179.714C179.267 180.513 177.027 181.312 174.785 181.717C170.301 182.527 165.407 183.142 160.918 182.769C156.224 182.397 151.73 181.237 147.438 179.484C146.416 179.095 145.393 178.509 144.37 177.922C143.96 177.53 143.347 177.336 142.937 176.944C142.732 176.748 142.527 176.552 142.527 176.355C142.526 176.158 142.526 176.158 142.322 176.159L142.32 175.765C142.318 175.371 142.316 174.977 142.518 174.581C143.325 172.607 145.746 167.078 147.571 164.705C150.004 161.737 154.883 158.167 161.615 158.135C165.083 158.118 168.145 158.498 170.8 159.076C171.822 159.465 173.047 159.656 174.069 160.243C176.317 161.02 178.16 162.39 179.798 163.762C183.078 166.899 185.545 171.025 186.586 175.355C186.385 175.947 186.184 176.539 185.778 176.935Z" fill="black"/>
</g>
</g>
</g>
<g id="svga-group-eyes-right-move">
<g id="svga-group-eyes-right">
<g id="svga-group-eyesback-right">
<path id="SvgjsPath31543" d="M244.348 138.934C259.648 138.861 271.944 150.634 272.015 165.321C272.086 180.009 259.903 191.9 244.603 191.973C229.303 192.047 217.006 180.274 216.936 165.586C216.865 150.898 229.048 139.008 244.348 138.934V138.934Z" fill="white"/>
</g>
<g id="svga-group-eyesiriswrapper-right">
<g id="svga-group-eyesiriscontrol-right">
<g id="svga-group-eyesiris-right">
<path id="SvgjsPath31624" d="M244.429 155.866C249.733 155.84 254.038 160.104 254.063 165.408C254.089 170.712 249.825 175.016 244.521 175.042C239.218 175.067 234.913 170.804 234.888 165.5C234.862 160.196 239.125 155.891 244.429 155.866Z" fill="#492B04"/>
<path id="SvgjsPath31625" d="M244.432 156.478C249.328 156.454 253.428 160.515 253.451 165.411C253.475 170.307 249.415 174.406 244.519 174.43C239.623 174.453 235.523 170.393 235.5 165.497C235.476 160.601 239.332 156.502 244.432 156.478ZM244.427 155.458C238.919 155.484 234.453 159.994 234.48 165.502C234.506 171.01 239.016 175.476 244.523 175.45C250.031 175.423 254.498 170.914 254.471 165.406C254.445 159.898 249.935 155.431 244.427 155.458Z" fill="#2A1800"/>
<path id="SvgjsPath31626" d="M239.388 168.13C239.399 170.374 240.226 172.614 241.865 174.034C242.682 174.234 243.499 174.435 244.519 174.43C249.414 174.406 253.475 170.307 253.451 165.411C253.442 163.575 252.822 161.742 252 160.522C250.773 159.915 249.547 159.513 248.119 159.52C243.223 159.544 239.366 163.438 239.388 168.13Z" fill="#58380E"/>
<path id="SvgjsPath31627" d="M244.452 160.558C247.104 160.545 249.359 162.778 249.371 165.43C249.384 168.082 247.151 170.337 244.499 170.35C241.847 170.362 239.592 168.129 239.579 165.477C239.567 162.825 241.8 160.571 244.452 160.558Z" fill="black"/>
<path id="SvgjsPath31628" d="M242.411 160.364C243.839 160.357 244.864 161.372 244.871 162.8C244.878 164.228 243.863 165.253 242.435 165.26C241.007 165.266 239.982 164.251 239.975 162.823C239.968 161.395 240.983 160.37 242.411 160.364ZM247.137 167.481C247.953 167.477 248.773 168.289 248.777 169.105C248.781 169.921 247.969 170.741 247.153 170.745C246.337 170.749 245.517 169.937 245.513 169.121C245.509 168.305 246.321 167.485 247.137 167.481Z" fill="white"/>
</g>
</g>
</g>
<g id="svga-group-eyesfront-right">
<path id="SvgjsPath31552" d="M244.343 137.914C228.431 137.991 215.639 150.496 215.713 165.796C215.786 181.096 228.698 193.478 244.61 193.401C260.522 193.325 273.314 180.819 273.24 165.52C273.166 150.22 260.255 137.838 244.343 137.914V137.914ZM245.157 179.935C233.937 179.989 222.087 176.169 222.48 173.108C222.48 173.108 224.878 162.692 234.448 158.974C244.018 155.256 254.025 157.452 258.943 161.916C263.861 166.585 267.558 171.667 267.157 173.301C266.961 174.934 256.377 179.881 245.157 179.935V179.935Z" fill="#A56B3F"/>
<path id="SvgjsPath31555" d="M269.187 171.047C268.572 170.438 262.007 162.921 260.781 162.315C259.554 161.709 252.589 155.827 250.957 155.834C249.325 155.842 237.901 155.897 235.457 156.725C233.013 157.553 226.917 162.478 225.903 163.707C225.295 164.526 226.313 164.113 227.331 163.7C226.52 164.724 225.709 165.748 225.102 166.771C223.887 168.817 223.081 170.861 222.479 172.904C222.482 173.516 222.689 174.127 223.099 174.533C223.509 174.939 223.919 175.345 224.532 175.546C225.555 176.153 226.577 176.556 227.599 177.163C229.643 177.969 231.891 178.774 234.137 179.172C238.63 180.17 243.121 180.76 247.608 180.535C252.095 180.309 256.578 179.268 260.855 177.819C262.891 176.993 265.131 176.167 266.96 174.73L267.569 174.115C267.772 173.91 267.771 173.706 267.77 173.502L267.767 172.89C267.766 172.686 267.766 172.686 267.561 172.483C268.376 172.071 269.598 171.657 269.187 171.047V171.047ZM266.749 173.303C266.546 173.508 266.547 173.712 266.343 173.713C264.717 174.945 262.477 175.771 260.441 176.597C256.164 178.046 251.884 178.882 247.398 179.312C242.911 179.537 238.625 179.15 234.134 178.56C231.888 178.162 229.846 177.764 227.599 176.959C226.577 176.556 225.555 176.153 224.532 175.546C224.123 175.344 223.509 174.939 223.099 174.533C222.689 174.127 222.483 173.72 222.48 173.108C223.683 168.818 226.317 164.929 229.772 162.26C231.601 160.824 233.433 159.999 235.469 159.173C237.302 158.552 238.932 158.136 240.767 157.923C241.175 157.922 241.786 157.715 242.194 157.713L243.622 157.706C247.293 157.484 251.172 158.077 254.443 159.49C257.103 161.109 259.152 163.139 260.383 164.561C262.229 166.592 265.104 170.455 266.132 172.082C266.337 172.489 266.338 172.693 266.34 173.101C266.747 172.895 266.748 173.099 266.749 173.303V173.303Z" fill="black"/>
</g>
</g>
</g>
<g id="svga-group-nose-single-move">
<g id="svga-group-nose-single">
<path id="SvgjsPath31670" d="M223.667 207.803C221.142 208.814 218.183 208.563 215.875 207.983C213.567 207.402 210.822 209.415 209.868 210.317C208.913 211.219 206.396 213.822 201.86 212.212C197.323 210.602 197.458 209.03 195.007 208.45C192.557 207.871 190.791 209.817 188.034 209.075C185.276 208.354 184.001 206.28 184.212 203.382C184.422 200.484 185.846 195.377 187.182 193.249C188.519 191.121 208.172 184.376 222.621 193.956C222.621 193.956 225.684 198.817 225.642 202.754C225.599 206.692 225.377 207.121 223.667 207.803Z" fill="#A56B3F"/>
<path id="SvgjsPath31671" d="M187.203 193.249C186.196 196.069 185.251 198.95 184.919 201.869C184.762 203.298 184.688 204.828 185.183 206.05L185.369 206.497C185.452 206.64 185.554 206.762 185.636 206.904C185.719 207.047 185.821 207.168 185.944 207.29C186.067 207.392 186.149 207.534 186.272 207.615C186.743 208.041 187.357 208.263 187.969 208.403C189.256 208.662 190.683 208.43 192.089 208.118L193.169 207.868L193.739 207.742L194.045 207.68L194.412 207.637C195.411 207.571 196.27 207.914 197.006 208.257C198.499 208.984 199.666 209.999 200.854 210.87L201.284 211.195C201.427 211.276 201.529 211.357 201.672 211.438C201.938 211.579 202.224 211.7 202.531 211.78C203.144 211.961 203.817 212.039 204.47 212.016C205.775 211.989 207.079 211.575 208.075 210.774L208.42 210.446L208.847 210.036C209.131 209.77 209.436 209.503 209.761 209.257C210.391 208.764 211.062 208.312 211.815 207.941C212.548 207.591 213.342 207.301 214.198 207.175C214.88 207.077 215.575 207.122 216.239 207.308L216.831 207.529C217.342 207.731 218.077 207.829 218.771 207.867C219.465 207.904 220.179 207.881 220.892 207.796C222.279 207.626 223.746 207.231 224.557 206.35C224.943 205.96 225.103 205.286 225.181 204.592C225.26 203.898 225.236 203.185 225.151 202.451C224.851 199.535 223.858 196.663 222.58 193.956C224.224 196.478 225.421 199.308 226.048 202.324C226.194 203.078 226.259 203.873 226.243 204.669C226.206 205.465 226.087 206.343 225.499 207.121C224.932 207.837 224.159 208.269 223.405 208.579C222.652 208.889 221.878 209.076 221.083 209.223C220.308 209.369 219.513 209.414 218.717 209.418C217.901 209.401 217.126 209.344 216.227 209.042L215.777 208.881C215.634 208.861 215.512 208.821 215.369 208.822C215.083 208.782 214.777 208.825 214.471 208.867C213.86 208.972 213.229 209.22 212.618 209.529C212.028 209.858 211.438 210.228 210.89 210.679C210.626 210.905 210.361 211.131 210.097 211.377L209.712 211.746L209.224 212.176C207.883 213.285 206.172 213.823 204.499 213.872C203.663 213.896 202.806 213.778 201.988 213.537C201.58 213.417 201.171 213.235 200.782 213.033C200.598 212.932 200.394 212.79 200.209 212.669L199.739 212.324C198.531 211.412 197.384 210.459 196.197 209.832C195.604 209.529 194.991 209.307 194.481 209.33L194.298 209.331L194.053 209.373L193.523 209.477L192.402 209.707C190.894 210 189.263 210.232 187.609 209.812C186.792 209.591 185.974 209.228 185.339 208.599C184.724 207.969 184.21 207.299 183.982 206.443C183.464 204.813 183.681 203.221 183.959 201.71C184.278 200.199 184.74 198.748 185.284 197.338C185.869 195.948 186.495 194.578 187.203 193.249V193.249Z" fill="#77390A"/>
<path id="SvgjsPath31672" d="M208.552 199.715C207.486 198.659 206.017 198.483 204.59 198.796C204.407 198.837 204.244 198.879 204.081 198.921C203.487 198.536 202.874 198.274 202.078 198.277C201.201 198.282 200.142 198.674 199.533 199.35C198.174 200.846 198.164 202.988 199.558 204.45C201.895 206.928 207.101 207.617 209.063 204.242C209.873 202.85 209.72 200.872 208.552 199.715V199.715Z" fill="#AD754B"/>
</g>
</g>
<g id="svga-group-hair-front">
<path id="SvgjsPath31708" d="M127.152 160.917C127.152 160.917 130.186 155.395 130.549 146.009C130.912 136.623 130.442 123.773 130.817 117.039C131.193 110.305 132.777 100.302 133.779 96.6249C134.578 92.949 134.969 89.4791 137.399 85.7954C139.83 82.1117 142.26 78.4279 147.965 76.9725C153.67 75.5171 163.439 70.778 165.671 68.1153C165.671 68.1153 171.785 66.8619 173.209 66.039C173.209 66.039 184.046 71.291 187.924 71.6804C191.802 72.0697 204.657 72.62 213.009 70.1318C221.361 67.6436 233.587 64.7289 238.283 65.5223C242.979 66.3157 263.16 63.1587 272.271 91.2673C272.271 91.2673 274.557 100.028 274.821 112.471C275.085 124.914 275.532 133.072 276.57 136.739C277.403 140.407 279.073 148.151 279.089 151.619C279.106 155.087 280.338 156.713 280.338 156.713C280.338 156.713 283.769 148.945 284.769 144.86C285.769 140.775 288.531 121.177 288.924 118.116C289.318 115.054 290.086 105.054 290.677 100.767C291.269 96.684 290.584 81.3871 290.584 81.3871C290.584 81.3871 290.742 71.7983 289.3 68.9491C287.859 66.304 286.41 61.823 283.337 59.1857C283.337 59.1857 283.525 55.9207 283.107 53.6787C282.688 51.4367 278.771 42.8874 266.275 32.1354C253.779 21.3833 239.051 13.09 222.119 13.1714C222.119 13.1714 228.031 12.3269 231.905 11.9003C231.905 11.9003 220.679 10.5263 215.379 11.3677L224.145 10.1016C224.145 10.1016 209.443 7.31622 199.054 10.4262C199.054 10.4262 200.47 7.97135 207.597 5.28507C207.597 5.28507 191.665 1.07759 176.212 11.76C176.212 11.76 164.173 11.2058 152.411 25.7465C152.411 25.7465 144.874 28.0268 142.841 29.4646C140.808 30.9024 130.223 35.8493 128.877 52.7879C128.877 52.7879 118.683 54.061 117.765 75.2816L118.87 93.0245C118.87 93.0245 115.233 100.386 115.269 107.934C115.306 115.482 117.368 120.164 117.59 123.835C117.812 127.506 119.069 134.436 119.069 134.436C119.069 134.436 122.782 142.986 123.411 146.451C123.837 150.325 127.152 160.917 127.152 160.917Z" fill="#2A232B"/>
<path id="SvgjsPath31709" d="M291.404 82.1992C291.598 80.1583 291.588 78.1183 291.374 76.0793C291.161 74.0403 290.743 72.0023 290.121 69.9652C289.499 67.9282 288.674 66.0961 287.85 64.2641C287.026 62.636 285.794 61.0099 284.562 59.3838C284.952 55.7099 283.712 52.2478 282.065 49.1957C280.418 46.1436 278.161 43.2984 275.7 40.6582C270.983 35.3768 265.453 30.9153 259.925 26.6579C254.193 22.6054 248.055 18.9628 241.313 16.7512C238.043 15.5429 234.571 14.7436 231.101 14.3522C227.631 13.9609 224.162 13.7736 220.696 14.1982C227.629 13.5529 234.573 15.1516 241.113 17.5682C247.652 19.9848 253.586 23.6283 259.114 27.8858C261.98 29.912 264.439 32.1442 267.103 34.5794C269.765 36.8107 272.225 39.2469 274.482 41.8881C276.739 44.5293 278.791 47.1714 280.438 50.2235C282.084 53.0717 283.12 56.5347 282.727 59.5967L282.729 60.0046L283.139 60.4107C284.37 61.8328 285.398 63.4599 286.426 65.0869C287.249 66.715 288.074 68.5471 288.695 70.3801C289.316 72.2131 289.733 74.0471 289.742 76.0871C289.956 78.1261 289.965 79.9621 289.771 82.0031C290.209 88.325 290.24 94.6489 290.066 100.974C289.892 107.299 288.698 113.425 287.912 119.752C287.127 126.08 286.341 132.408 285.35 138.533C284.957 141.595 284.361 144.862 283.559 147.722C282.552 150.583 281.343 153.648 280.542 156.712C281.547 153.647 282.757 150.786 283.968 147.924C284.973 144.859 285.57 141.796 286.167 138.529C287.36 132.199 288.351 126.074 289.136 119.747L290.519 110.356C291.116 107.293 291.305 104.028 291.493 100.763C291.873 94.8451 291.842 88.5212 291.404 82.1992V82.1992ZM276.117 84.9247C276.313 83.2917 276.917 81.6568 277.317 80.0229C277.717 78.3889 278.322 76.754 278.926 75.1191L280.534 70.2153L281.338 67.7634L281.74 66.5375L281.941 65.9245L282.144 65.5155L282.143 65.3115L282.144 65.5155L282.143 65.3115C281.939 65.3125 282.143 65.3115 281.94 65.5165L281.737 65.7215L281.331 66.3354L280.724 67.3584L279.511 69.6082C278.703 71.2441 277.894 72.676 277.29 74.3109C275.877 77.5818 274.669 80.8516 274.074 84.3225C273.678 86.7725 273.689 89.2204 273.701 91.6684C273.492 90.6494 273.079 89.6314 272.87 88.6123C271.833 84.9453 270.387 81.2802 268.739 77.8201C267.09 74.36 265.237 70.9008 262.571 67.8536C257.645 61.7572 250.487 57.9156 243.333 55.0939C236.181 52.6803 230.444 47.4038 226.538 41.0985C224.687 38.0473 223.037 34.3832 222.816 30.7122C222.603 28.8772 223.002 27.0393 223.606 25.4044C224.414 23.7685 225.427 22.3356 227.054 21.3078C229.9 19.0501 233.771 18.0114 237.444 18.1978C241.117 18.3841 244.998 19.5895 248.271 21.4098C244.997 19.3855 241.32 18.1792 237.442 17.7898C233.564 17.4004 229.488 18.236 226.44 20.6987C224.812 21.7265 223.392 23.3654 222.585 25.2053C221.778 27.0452 221.38 29.0871 221.594 31.1261C221.817 35.2051 223.263 38.8702 225.318 42.1243C229.227 48.8376 235.577 54.3152 242.73 56.9328C249.679 59.7555 256.43 63.5991 260.945 69.2894C264.639 73.7597 267.112 79.0519 269.179 84.55C266.496 78.0349 261.774 71.9375 255.433 68.2959C251.75 66.0696 247.46 64.8662 243.175 64.6828L242.359 64.6867C235.821 62.6781 228.88 61.4875 221.943 61.3168L216.843 61.3413L215.21 61.1452C214.19 61.1501 212.964 60.7479 211.943 60.5488C210.921 60.1458 209.9 59.9467 208.877 59.3396C204.788 57.5232 201.307 54.6839 199.045 51.0227C196.579 47.3625 194.927 43.0864 194.294 38.8054C193.661 34.3204 193.843 29.8315 195.251 25.7447C196.66 21.6578 199.907 18.1742 203.567 15.7086C207.432 13.446 211.914 11.9964 216.399 11.3629C211.912 11.5884 207.225 12.631 203.155 14.8945C199.086 17.1581 195.635 20.6428 193.82 25.1395C193.417 26.1615 193.015 27.3874 192.817 28.6124C192.619 29.8374 192.42 30.8583 192.426 32.0823C192.432 33.3063 192.233 34.3273 192.238 35.5513C192.244 36.7752 192.453 37.7942 192.459 39.0182C193.094 43.7072 194.747 48.1873 197.215 52.2555C199.885 56.1187 203.777 59.3641 208.07 61.1795C212.364 63.1989 217.465 63.3783 221.951 62.9488C226.437 62.7232 230.927 63.1096 235.419 63.9041C236.644 64.1022 238.073 64.2993 239.298 64.4974C236.238 64.5121 233.178 64.5268 230.324 64.9486C221.761 66.0097 213.616 69.1089 205.462 70.3721C201.385 71.0037 197.102 71.2283 193.02 70.8399C188.735 70.6565 184.65 69.6561 180.971 68.0418C177.291 66.4274 173.811 63.9961 171.143 60.7449C168.477 57.6977 166.622 53.8306 165.379 49.9605C164.137 46.0904 163.708 41.8084 163.893 37.7275C164.077 33.6466 164.464 29.3607 166.078 25.4769C169.305 17.9133 176.009 11.965 183.541 8.66474C190.462 5.57144 198.413 4.51322 205.763 5.70191C204.745 6.1148 203.726 6.3237 202.709 6.9406C201.895 7.35251 201.081 7.76443 200.268 8.38035C199.455 8.99626 198.846 9.6112 198.443 10.6331L198.243 11.4501L199.058 11.2422C201.094 10.4164 203.336 9.99762 205.375 9.78382C207.618 9.56904 209.657 9.35524 211.901 9.34445C214.145 9.33367 216.39 9.52688 218.43 9.51708C220.675 9.71029 222.92 9.9035 224.962 10.3017C222.716 9.90448 220.674 9.50629 218.429 9.31308C216.184 9.11987 213.939 8.92665 211.899 8.93646C209.655 8.94724 207.411 8.95803 205.168 9.17281C203.333 9.38563 201.498 9.59845 199.665 10.2193C200.071 9.80931 200.273 9.40034 200.68 9.19438C201.29 8.78344 202.104 8.37152 202.918 7.95961C204.547 7.33977 206.176 6.71993 208.01 6.30311L210.252 5.88433L208.005 5.28313C199.836 3.28237 190.66 4.14248 182.719 7.44467C180.072 8.47741 177.427 9.91814 175.192 11.7649C172.134 12.1876 169.282 13.0173 166.432 14.255C162.971 15.6997 159.717 17.7553 156.871 20.013C156.058 20.629 155.449 21.2439 154.636 21.8598C154.027 22.4747 153.419 23.2937 152.81 23.9086C152.202 24.7275 151.798 25.5455 151.189 26.1604C144.871 27.4148 138.767 30.7082 134.302 35.6257C131.665 38.6984 130.051 42.3782 128.845 46.26C128.245 48.711 127.849 51.1609 127.861 53.6089C124.805 54.6436 122.164 56.9003 120.546 59.7641C118.725 62.8329 117.926 66.5087 117.535 69.9787C116.751 76.7145 116.785 83.6504 117.634 90.5824L117.636 90.9904C115.827 96.5072 114.426 102.226 114.046 108.144L114.068 112.632C114.279 114.059 114.491 115.69 114.906 117.116C115.531 119.969 115.953 122.823 116.375 125.677C116.796 128.531 117.218 131.385 118.048 134.237C118.463 135.663 118.878 137.089 119.496 138.514C120.114 139.735 120.529 141.161 121.148 142.586C123.011 148.085 124.669 153.585 126.124 159.29C125.077 153.583 124.03 147.876 122.166 142.173C121.751 140.747 121.336 139.321 120.718 137.896C120.099 136.471 119.685 135.249 119.474 133.822C118.848 130.969 118.63 128.114 118.209 125.26C117.787 122.406 117.365 119.552 116.74 116.699C116.325 115.273 116.114 113.846 116.108 112.622L116.088 108.542C116.271 104.053 117.269 99.5603 118.473 95.2705C119.929 101.18 123.041 111.977 130.222 120.51C130.233 122.754 130.448 124.997 130.255 127.446C130.274 131.322 130.089 135.199 130.106 138.871C130.125 142.747 129.94 146.624 129.549 150.298C129.354 152.135 129.364 154.175 128.965 156.013C128.566 157.851 128.575 159.891 127.563 161.528C128.575 159.891 128.974 157.849 129.373 156.011C129.772 154.173 130.17 152.131 130.365 150.294C130.755 146.416 131.144 142.538 131.534 138.864C131.924 134.986 131.905 131.11 132.09 127.233C132.276 123.356 132.053 119.481 132.036 115.81C132.203 108.261 133.186 100.504 134.987 93.1511C135.785 89.4752 136.991 85.7973 139.426 82.9296C141.86 80.0619 145.114 78.0062 148.78 76.7646C145.112 77.5982 141.45 79.6559 138.607 82.3215C137.186 83.7564 136.173 85.3933 135.366 87.2332C134.559 89.0731 133.956 90.912 133.353 92.7509C132.146 96.4288 131.553 100.308 130.96 104.187C130.366 108.065 129.977 111.943 129.792 115.82L129.797 117.044C121.378 105.457 119.266 90.5746 119.265 90.3706L119.061 90.3716C118.637 87.1096 118.418 83.8466 118.198 80.5836C117.977 77.1166 118.165 73.6477 118.351 69.9747C118.538 66.5058 119.134 63.0349 120.751 59.9671C122.166 57.3083 124.398 54.8495 127.453 53.6108C127.459 55.0388 127.467 56.6708 127.678 58.0978C128.309 61.9708 129.756 66.0439 132.626 68.8861C135.497 71.9324 139.583 73.3407 143.461 73.7301C151.423 74.9159 159.571 72.4287 165.464 67.5043C162.21 69.56 158.749 71.2086 154.877 72.0432C151.209 72.8769 147.333 72.8955 143.659 72.3011C139.983 71.5028 136.305 70.2965 133.844 67.6563C131.383 65.0161 129.938 61.351 129.512 57.681C128.457 50.342 130.459 42.3762 134.918 36.4387C137.352 33.571 140.401 31.1083 143.656 29.2567C145.69 28.0229 148.134 27.1951 150.374 26.3683C149.97 27.1863 149.769 27.7993 149.365 28.6172C147.953 32.092 147.156 35.9719 146.97 39.6449C146.784 43.5218 147.006 47.1928 147.84 50.8608C148.673 54.5288 149.915 58.1949 152.378 61.2431C153.608 62.6652 155.247 64.0854 156.883 64.8935C158.519 65.7017 160.358 66.3048 162.196 66.704C165.871 67.2983 169.542 67.0767 172.798 65.429C174.846 67.0512 177.301 68.4674 179.754 69.6796C183.842 71.292 188.131 72.2914 192.416 72.4748C196.702 72.8622 200.985 72.6376 205.266 72.0051C213.827 70.5359 221.768 67.4377 230.126 66.1735C235.427 65.536 240.933 65.1016 246.037 65.8931L248.488 66.4933C248.079 66.2912 247.671 66.2932 247.262 66.0912C249.917 66.6904 252.369 67.4946 254.619 68.7078C261.777 72.5495 267.115 79.6639 270.009 87.4021C270.215 87.8091 270.421 88.4201 270.423 88.8281C271.461 92.4952 272.295 96.1632 272.72 99.8332C272.722 100.241 272.723 100.445 272.929 100.852C272.935 102.076 272.738 103.505 272.54 104.73C272.741 104.117 272.943 103.708 273.144 103.095C273.361 105.746 273.17 108.399 273.182 111.051C273.219 118.599 274.072 126.347 275.128 133.89C275.758 137.559 276.592 141.431 277.426 145.099C278.26 148.767 277.87 152.645 277.684 156.318C277.879 154.481 278.278 152.643 278.472 150.602C278.668 148.765 278.454 146.726 278.241 144.891C278.028 143.056 277.611 141.222 277.194 139.184C276.776 137.146 276.564 135.515 276.35 133.476C275.498 125.932 274.85 118.387 275.017 110.838C275.204 107.165 275.184 103.085 274.758 99.4154C274.755 98.8034 274.548 97.9884 274.545 97.3764C274.744 96.3554 274.739 95.3355 274.938 94.3145C275.537 91.6596 275.52 88.1916 276.117 84.9247V84.9247ZM162.806 66.2931C159.333 65.2897 155.857 63.6744 154.009 61.0313C151.955 58.1851 150.918 54.7221 150.085 51.054C149.456 47.589 149.234 43.918 149.421 40.2451C149.805 35.3472 151.005 30.4454 153.433 26.1496C153.841 26.1477 154.452 25.9407 155.064 25.9378C154.656 25.9398 154.044 25.9427 153.637 26.1487C154.852 24.3068 156.068 22.6689 157.897 21.2321C160.537 18.7714 163.588 16.7167 166.844 15.0691C169.286 13.8333 172.137 12.7996 174.785 11.9709C170.313 15.2564 166.662 19.762 164.24 25.0777C162.423 29.1665 162.037 33.6564 161.854 37.9413C161.67 42.2262 162.304 46.7112 163.343 50.7863C164.383 54.8613 166.647 58.9305 169.519 62.3848C170.545 63.6038 171.775 64.8219 173.208 65.8351C169.746 67.0757 166.074 67.0934 162.806 66.2931V66.2931Z" fill="#1B141C"/>
</g>
<g id="eyebrowRight">
<g id="svga-group-eyebrows-right-rotate">
<g id="svga-group-eyebrows-right">
<path id="SvgjsPath31466" d="M219.64 128.795C219.64 128.795 219.631 135.38 221 140.88C221 140.88 253.666 137.452 257.615 137.755C261.564 138.058 274.096 146.817 274.096 146.817L261.983 128.617L254.476 128.126L255.716 126.788L239.486 127.788L224.439 127.646L223.124 132.15L222.619 127.327L221.304 131.831L219.64 128.795V128.795Z" fill="#2A232B"/>
<path id="SvgjsPath31467" d="M274.349 146.678L268.517 137.537C266.657 134.444 264.544 131.49 262.489 128.34L262.35 128.087L262.154 128.03L255.936 127.49L256.247 127.155L257.43 126.013L255.692 126.143C250.535 126.338 245.32 126.728 240.106 127.119L236.238 127.265L232.37 127.411L224.496 127.45L224.104 127.336L223.247 130.273L222.815 127.384L222.628 125.842L222.227 127.213L221.28 131.186C221.199 130.738 220.864 130.427 220.783 129.979C220.505 129.473 220.424 129.024 220.146 128.518L220.008 128.265L219.836 128.852L219.918 129.301L219.885 130.142C219.966 130.59 219.991 131.235 219.876 131.627C219.982 132.72 219.949 133.561 220.055 134.654C220.128 136.588 220.536 138.832 220.805 140.823L220.886 141.272L221.335 141.191C225.905 140.824 230.474 140.458 235.297 139.953C239.867 139.587 244.493 139.025 249.063 138.659C251.446 138.505 253.633 138.293 256.016 138.138L256.856 138.171L257.697 138.204C258.341 138.18 258.733 138.294 259.32 138.466C260.495 138.809 261.417 139.29 262.535 139.829C266.615 141.87 270.523 144.498 274.431 147.127L275.491 147.861L274.349 146.678V146.678ZM259.296 137.821C258.708 137.649 258.121 137.478 257.476 137.502L256.636 137.469L255.795 137.437C253.47 137.395 251.087 137.55 248.9 137.761C244.135 138.07 239.565 138.437 234.995 138.803C230.426 139.169 225.995 139.788 221.564 140.407C221.042 138.555 220.773 136.564 220.643 134.826C220.48 133.928 220.374 132.835 220.268 131.741L220.081 130.199L220.056 129.554L219.975 129.105L220.032 128.909C220.309 129.415 220.391 129.864 220.472 130.313C220.75 130.819 220.831 131.268 221.051 131.97L221.329 132.476L222.415 128.755L222.732 132.035L223.001 134.026L224.773 127.956L232.395 128.055C234.916 128.154 237.69 128.114 240.212 128.212C244.977 127.903 249.49 127.733 254.255 127.424L254.198 127.62L253.268 128.623L254.753 128.632L262.064 129.066C263.981 131.963 266.094 134.917 268.011 137.815L273.403 145.552C269.829 143.233 266.452 140.972 262.568 138.988C261.336 138.841 260.414 138.36 259.296 137.821V137.821ZM225.277 137.878C225.285 136.393 225.628 135.218 226.029 133.848L226.6 131.889C226.772 131.302 227 130.519 227.563 130.045C227.392 130.633 227.359 131.473 227.188 132.061C227.016 132.648 226.983 133.489 226.812 134.076C226.216 135.39 225.816 136.761 225.277 137.878V137.878ZM227.897 135.456C228.264 134.925 228.631 134.395 228.942 134.06L229.986 132.665L232.133 129.679L232.753 129.01L232.721 129.851C232.565 132.568 232.213 135.228 232.115 137.749L231.528 137.578L233.388 135.571C234.009 134.902 234.629 134.233 235.388 133.817C236.008 133.148 236.767 132.732 237.388 132.063C238.008 131.394 238.767 130.978 239.526 130.562C238.767 130.978 238.147 131.647 237.526 132.316C236.906 132.985 236.343 133.458 235.527 134.07L233.666 136.077L231.805 138.084L231.185 138.753L231.217 137.912C231.373 135.195 231.724 132.535 231.823 130.014L232.41 130.185L230.125 132.918L228.884 134.256C228.77 134.648 228.46 134.982 227.897 135.456V135.456Z" fill="#1B141C"/>
</g>
</g>
</g>
<g id="eyebrowLeft">
<g id="svga-group-eyebrows-left-rotate">
<g id="svga-group-eyebrows-left">
<path id="SvgjsPath31464" d="M188.245 124.284C188.245 124.284 189.323 132.177 188.934 138.895C188.934 138.895 154.918 135.78 151.033 136.1C147.149 136.42 135.751 147.504 135.751 147.504L145.063 125.395L152.794 124.555L151.25 122.979L168.006 123.753L183.494 123.314L185.558 128.737L185.298 122.973L187.362 128.396L188.245 124.284V124.284Z" fill="#2A232B"/>
<path id="SvgjsPath31465" d="M188.245 124.284L188.083 124.522C187.996 125.161 187.871 125.6 187.584 126.277C187.46 126.716 187.335 127.155 187.248 127.794L185.499 122.935L184.756 121.207L184.697 123.087L184.702 126.407L183.494 123.314L183.418 122.913L183.017 122.989L174.935 123.065L171.012 123.184C169.772 123.211 168.331 123.277 167.09 123.304C161.651 123.087 156.412 122.833 150.973 122.616L149.294 122.518L150.6 123.932L151.239 124.019L144.949 124.794L144.548 124.87L144.386 125.108C142.826 128.933 141.428 132.519 139.868 136.344L135.35 147.58L134.776 148.934L135.827 147.905C139.142 144.578 142.696 141.415 146.564 138.814C147.49 138.224 148.617 137.595 149.543 137.005C150.107 136.69 150.508 136.615 151.109 136.501L151.949 136.55L152.788 136.598C155.107 136.782 157.626 136.929 159.945 137.113C164.821 137.644 169.458 138.012 174.296 138.342C179.133 138.673 183.771 139.041 188.608 139.371L189.047 139.496L188.971 139.095C189.118 136.576 188.863 134.133 188.809 131.651C188.782 130.411 188.554 129.208 188.527 127.968C188.413 127.366 188.299 126.765 188.386 126.126L188.083 124.522L188.245 124.284C188.283 124.484 188.245 124.284 188.245 124.284V124.284ZM188.196 125.123L188.148 125.963L188.289 127.805L188.37 131.527C188.386 133.808 188.403 136.088 188.218 138.407C183.543 137.838 178.906 137.47 174.231 136.901C169.355 136.37 164.718 136.002 159.918 135.872C157.599 135.688 155.118 135.742 152.799 135.558L151.96 135.509L151.12 135.461C150.519 135.574 149.917 135.688 149.354 136.002C148.227 136.631 147.301 137.221 146.374 137.812C142.907 140.336 139.678 143.024 136.526 146.112L140.746 136.593C142.344 132.969 143.942 129.345 145.377 125.959L152.707 125.195L154.148 125.13L153.081 123.878L152.842 123.716C157.68 124.046 162.48 124.176 167.28 124.306L175.325 124.029L182.931 123.628L184.881 128.45L185.737 130.779L185.683 128.298L185.526 124.175L187.048 127.832L187.362 128.396L187.449 127.756L187.709 125.839C187.796 125.199 187.882 124.56 188.007 124.121L188.196 125.123V125.123ZM184.166 135.644C183.863 134.041 183.321 132.275 182.817 130.709C182.465 129.945 182.313 129.143 181.961 128.379C181.609 127.616 181.257 126.852 180.704 126.126C181.056 126.89 181.208 127.691 181.36 128.493C181.511 129.295 181.864 130.059 182.216 130.823C182.72 132.388 183.462 134.116 184.166 135.644V135.644ZM181.116 132.692C180.601 132.166 180.249 131.402 179.735 130.877L178.353 129.062L175.628 125.633L175.038 124.707L175.265 125.909C175.872 129.116 176.479 132.323 177.286 135.493L177.849 135.178C177.096 134.49 176.305 133.602 175.552 132.914L173.293 130.85C172.54 130.162 171.787 129.474 170.834 128.824C170.081 128.136 169.127 127.486 168.212 127.036C168.965 127.724 169.918 128.374 170.671 129.062L172.93 131.126C173.683 131.814 174.436 132.502 175.227 133.391C175.98 134.079 176.771 134.967 177.324 135.693L178.115 136.581L177.887 135.379C177.281 132.172 176.473 129.003 175.866 125.795L175.503 126.072L178.429 129.463L179.973 131.039C180.087 131.641 180.601 132.166 181.116 132.692V132.692Z" fill="#1B141C"/>
</g>
</g>
</g>
<g id="mouth">
<g id="svga-group-mouth-single">
<path id="SvgjsPath31686" d="M180.601 252.06C180.601 252.06 188.884 261.011 201.226 262.176C213.568 263.34 226.624 253.225 226.624 253.225C226.624 253.225 200.491 266.08 180.601 252.06Z" fill="#864818"/>
<path id="SvgjsPath31687" d="M171.34 237.415C171.34 237.415 174.338 239.227 178.602 240.392C183.335 241.686 189.577 242.441 194.045 243.95C200.144 245.999 201.226 249.731 203.612 249.321C205.999 248.933 208.447 244.317 213.058 243.346C217.668 242.376 230.724 243.347 236.252 240.133C236.252 240.133 214.037 236.984 202.633 236.574C187.109 236.013 171.34 237.415 171.34 237.415Z" fill="#753824"/>
</g>
</g>
</g>
</g>
<defs>
<clipPath id="clip0_59_83">
<rect width="408" height="408" fill="white"/>
</clipPath>
</defs>
</svg>
